<?xml version="1.0" encoding="UTF-8" standalone="no"?>
<!DOCTYPE svg PUBLIC "-//W3C//DTD SVG 1.1//EN" "http://www.w3.org/Graphics/SVG/1.1/DTD/svg11.dtd">
<svg version="1.1" xmlns="http://www.w3.org/2000/svg" xmlns:xlink="http://www.w3.org/1999/xlink" preserveAspectRatio="xMidYMid meet" viewBox="340 340 340 340" width="680" height="680">
    <defs>
        <path d="M70 0C70 8.28 76.72 15 85 15C93.28 15 100 8.28 100 0C100 -8.28 93.28 -15 85 -15C76.72 -15 70 -8.28 70 0Z" id="bBTbwOD6P"/>
        <path d="M-15 0C-15 8.28 -8.28 15 0 15C8.28 15 15 8.28 15 0C15 -8.28 8.28 -15 0 -15C-8.28 -15 -15 -8.28 -15 0Z" id="afDknzUNs"/>
        <path d="M155 0C155 8.28 161.73 15 170 15C178.28 15 185 8.28 185 0C185 -8.28 178.28 -15 170 -15C161.73 -15 155 -8.28 155 0Z" id="fTP2gBRY0"/>
        <path d="M325 0C325 8.28 331.72 15 340 15C348.28 15 355 8.28 355 0C355 -8.28 348.28 -15 340 -15C331.72 -15 325 -8.28 325 0Z" id="a3SmNSEQjM"/>
        <path d="M240 0C240 8.28 246.72 15 255 15C263.28 15 270 8.28 270 0C270 -8.28 263.28 -15 255 -15C246.72 -15 240 -8.28 240 0Z" id="ftiwlx8IK"/>
        <path d="M410 0C410 8.28 416.72 15 425 15C433.28 15 440 8.28 440 0C440 -8.28 433.28 -15 425 -15C416.72 -15 410 -8.28 410 0Z" id="aifVU2AKk"/>
        <path d="M580 0C580 8.28 586.72 15 595 15C603.28 15 610 8.28 610 0C610 -8.28 603.28 -15 595 -15C586.72 -15 580 -8.28 580 0Z" id="b2ZUpqg1Lo"/>
        <path d="M495 0C495 8.28 501.72 15 510 15C518.28 15 525 8.28 525 0C525 -8.28 518.28 -15 510 -15C501.72 -15 495 -8.28 495 0Z" id="bOsHCykt1"/>
        <path d="M665 0C665 8.28 671.72 15 680 15C688.28 15 695 8.28 695 0C695 -8.28 688.28 -15 680 -15C671.72 -15 665 -8.28 665 0Z" id="f1yZnxaDxL"/>
        <path d="M70 85.01C70 93.28 76.72 100.01 85 100.01C93.28 100.01 100 93.28 100 85.01C100 76.73 93.28 70.01 85 70.01C76.72 70.01 70 76.73 70 85.01Z" id="a3hO8B4Aiw"/>
        <path d="M-15 85.01C-15 93.28 -8.28 100.01 0 100.01C8.28 100.01 15 93.28 15 85.01C15 76.73 8.28 70.01 0 70.01C-8.28 70.01 -15 76.73 -15 85.01Z" id="agIyq46FX"/>
        <path d="M155 85.01C155 93.28 161.73 100.01 170 100.01C178.28 100.01 185 93.28 185 85.01C185 76.73 178.28 70.01 170 70.01C161.73 70.01 155 76.73 155 85.01Z" id="d9476mQvm"/>
        <path d="M325 85.01C325 93.28 331.72 100.01 340 100.01C348.28 100.01 355 93.28 355 85.01C355 76.73 348.28 70.01 340 70.01C331.72 70.01 325 76.73 325 85.01Z" id="f31Qvg8XUy"/>
        <path d="M240 85.01C240 93.28 246.72 100.01 255 100.01C263.28 100.01 270 93.28 270 85.01C270 76.73 263.28 70.01 255 70.01C246.72 70.01 240 76.73 240 85.01Z" id="aFtPkcilA"/>
        <path d="M410 85.01C410 93.28 416.72 100.01 425 100.01C433.28 100.01 440 93.28 440 85.01C440 76.73 433.28 70.01 425 70.01C416.72 70.01 410 76.73 410 85.01Z" id="f1I5xcnU5f"/>
        <path d="M580 85C580 93.28 586.72 100 595 100C603.28 100 610 93.28 610 85C610 76.73 603.28 70 595 70C586.72 70 580 76.73 580 85Z" id="aA5yvMaxK"/>
        <path d="M495 85.01C495 93.28 501.72 100.01 510 100.01C518.28 100.01 525 93.28 525 85.01C525 76.73 518.28 70.01 510 70.01C501.72 70.01 495 76.73 495 85.01Z" id="b4Ycpp0VN"/>
        <path d="M665 85C665 93.28 671.72 100 680 100C688.28 100 695 93.28 695 85C695 76.73 688.28 70 680 70C671.72 70 665 76.73 665 85Z" id="cfzmfiq64"/>
        <path d="M70 170C70 178.28 76.72 185 85 185C93.28 185 100 178.28 100 170C100 161.72 93.28 155 85 155C76.72 155 70 161.72 70 170Z" id="eexxUnDQD"/>
        <path d="M-15 170C-15 178.28 -8.28 185 0 185C8.28 185 15 178.28 15 170C15 161.72 8.28 155 0 155C-8.28 155 -15 161.72 -15 170Z" id="a5wMjDS7zP"/>
        <path d="M155 170C155 178.28 161.72 185 170 185C178.28 185 185 178.28 185 170C185 161.72 178.28 155 170 155C161.72 155 155 161.72 155 170Z" id="a2Nq1FNrvM"/>
        <path d="M325 170C325 178.28 331.72 185 340 185C348.28 185 355 178.28 355 170C355 161.72 348.28 155 340 155C331.72 155 325 161.72 325 170Z" id="mt6GQMrRR"/>
        <path d="M240 170C240 178.28 246.72 185 255 185C263.27 185 270 178.28 270 170C270 161.72 263.27 155 255 155C246.72 155 240 161.72 240 170Z" id="e5iwRFaQN"/>
        <path d="M410 170C410 178.28 416.72 185 425 185C433.28 185 440 178.28 440 170C440 161.72 433.28 155 425 155C416.72 155 410 161.72 410 170Z" id="bXNc5bbVz"/>
        <path d="M580 170C580 178.28 586.72 185 595 185C603.28 185 610 178.28 610 170C610 161.72 603.28 155 595 155C586.72 155 580 161.72 580 170Z" id="ahitpRwjr"/>
        <path d="M495 170C495 178.28 501.72 185 510 185C518.28 185 525 178.28 525 170C525 161.72 518.28 155 510 155C501.72 155 495 161.72 495 170Z" id="b8iit9daY"/>
        <path d="M665 170C665 178.28 671.72 185 680 185C688.28 185 695 178.28 695 170C695 161.72 688.28 155 680 155C671.72 155 665 161.72 665 170Z" id="c17iFPDkLx"/>
        <path d="M70 255C70 263.28 76.72 270 85 270C93.28 270 100 263.28 100 255C100 246.73 93.28 240 85 240C76.72 240 70 246.73 70 255Z" id="d4CuwbbcUB"/>
        <path d="M-15 255C-15 263.28 -8.28 270 0 270C8.28 270 15 263.28 15 255C15 246.73 8.28 240 0 240C-8.28 240 -15 246.73 -15 255Z" id="a2HOKk05Zz"/>
        <path d="M155 255C155 263.28 161.72 270 170 270C178.28 270 185 263.28 185 255C185 246.73 178.28 240 170 240C161.72 240 155 246.73 155 255Z" id="b35ZTlkOtc"/>
        <path d="M325 255C325 263.28 331.72 270 340 270C348.28 270 355 263.28 355 255C355 246.73 348.28 240 340 240C331.72 240 325 246.73 325 255Z" id="a9jhBYQLH"/>
        <path d="M240 255C240 263.28 246.72 270 255 270C263.27 270 270 263.28 270 255C270 246.73 263.27 240 255 240C246.72 240 240 246.73 240 255Z" id="aa7hr8rp"/>
        <path d="M410 255C410 263.28 416.72 270 425 270C433.28 270 440 263.28 440 255C440 246.73 433.28 240 425 240C416.72 240 410 246.73 410 255Z" id="h79nsM21e"/>
        <path d="M580 255C580 263.28 586.72 270 595 270C603.28 270 610 263.28 610 255C610 246.73 603.28 240 595 240C586.72 240 580 246.73 580 255Z" id="a2qybWlimk"/>
        <path d="M495 255C495 263.28 501.72 270 510 270C518.28 270 525 263.28 525 255C525 246.73 518.28 240 510 240C501.72 240 495 246.73 495 255Z" id="c3BWwvCQc"/>
        <path d="M665 255C665 263.28 671.72 270 680 270C688.28 270 695 263.28 695 255C695 246.73 688.28 240 680 240C671.72 240 665 246.73 665 255Z" id="b1gNWdkpca"/>
        <path d="M70 340C70 348.28 76.72 355 85 355C93.28 355 100 348.28 100 340C100 331.72 93.28 325 85 325C76.72 325 70 331.72 70 340Z" id="bvUHLL4T0"/>
        <path d="M-15 340C-15 348.28 -8.28 355 0 355C8.28 355 15 348.28 15 340C15 331.72 8.28 325 0 325C-8.28 325 -15 331.72 -15 340Z" id="a2ueoGOzwe"/>
        <path d="M155.01 340C155.01 348.28 161.73 355 170.01 355C178.28 355 185.01 348.28 185.01 340C185.01 331.72 178.28 325 170.01 325C161.73 325 155.01 331.72 155.01 340Z" id="c4x4LyOe6s"/>
        <path d="M325 340C325 348.28 331.72 355 340 355C348.28 355 355 348.28 355 340C355 331.72 348.28 325 340 325C331.72 325 325 331.72 325 340Z" id="c1grAHaIam"/>
        <path d="M240 340C240 348.28 246.72 355 255 355C263.28 355 270 348.28 270 340C270 331.72 263.28 325 255 325C246.72 325 240 331.72 240 340Z" id="a7tv0KRPnH"/>
        <path d="M410 340C410 348.28 416.73 355 425 355C433.28 355 440 348.28 440 340C440 331.72 433.28 325 425 325C416.73 325 410 331.72 410 340Z" id="bnn6n604d"/>
        <path d="M580 340C580 348.28 586.72 355 595 355C603.28 355 610 348.28 610 340C610 331.72 603.28 325 595 325C586.72 325 580 331.72 580 340Z" id="a1GWy3uNT"/>
        <path d="M495 340C495 348.28 501.72 355 510 355C518.28 355 525 348.28 525 340C525 331.72 518.28 325 510 325C501.72 325 495 331.72 495 340Z" id="a2r86ZSq2Y"/>
        <path d="M665 340C665 348.28 671.73 355 680 355C688.28 355 695 348.28 695 340C695 331.72 688.28 325 680 325C671.73 325 665 331.72 665 340Z" id="d20jVg1Tnq"/>
        <path d="M70 425.01C70 433.29 76.72 440.01 85 440.01C93.28 440.01 100 433.29 100 425.01C100 416.73 93.28 410.01 85 410.01C76.72 410.01 70 416.73 70 425.01Z" id="bcExg99OX"/>
        <path d="M-15 425.01C-15 433.29 -8.28 440.01 0 440.01C8.28 440.01 15 433.29 15 425.01C15 416.73 8.28 410.01 0 410.01C-8.28 410.01 -15 416.73 -15 425.01Z" id="a6OOT88oz"/>
        <path d="M155.01 425.01C155.01 433.29 161.73 440.01 170.01 440.01C178.28 440.01 185.01 433.29 185.01 425.01C185.01 416.73 178.28 410.01 170.01 410.01C161.73 410.01 155.01 416.73 155.01 425.01Z" id="h6fAQFuq0p"/>
        <path d="M325 425.01C325 433.29 331.72 440.01 340 440.01C348.28 440.01 355 433.29 355 425.01C355 416.73 348.28 410.01 340 410.01C331.72 410.01 325 416.73 325 425.01Z" id="a4swhTn768"/>
        <path d="M240 425.01C240 433.29 246.72 440.01 255 440.01C263.28 440.01 270 433.29 270 425.01C270 416.73 263.28 410.01 255 410.01C246.72 410.01 240 416.73 240 425.01Z" id="b2ZEZF4oz"/>
        <path d="M410 425.01C410 433.29 416.73 440.01 425 440.01C433.28 440.01 440 433.29 440 425.01C440 416.73 433.28 410.01 425 410.01C416.73 410.01 410 416.73 410 425.01Z" id="a4pDzdmpbA"/>
        <path d="M580 425.01C580 433.29 586.72 440.01 595 440.01C603.28 440.01 610 433.29 610 425.01C610 416.73 603.28 410.01 595 410.01C586.72 410.01 580 416.73 580 425.01Z" id="a3iEQRbDJ4"/>
        <path d="M495 425.01C495 433.29 501.72 440.01 510 440.01C518.28 440.01 525 433.29 525 425.01C525 416.73 518.28 410.01 510 410.01C501.72 410.01 495 416.73 495 425.01Z" id="d3yosEB8mq"/>
        <path d="M665 425.01C665 433.29 671.73 440.01 680 440.01C688.28 440.01 695 433.29 695 425.01C695 416.73 688.28 410.01 680 410.01C671.73 410.01 665 416.73 665 425.01Z" id="bFjdtPHpZ"/>
        <path d="M70 510C70 518.28 76.72 525 85 525C93.28 525 100 518.28 100 510C100 501.72 93.28 495 85 495C76.72 495 70 501.72 70 510Z" id="b1jBBq1cqn"/>
        <path d="M-15 510C-15 518.28 -8.28 525 0 525C8.28 525 15 518.28 15 510C15 501.72 8.28 495 0 495C-8.28 495 -15 501.72 -15 510Z" id="e4AKXvU8U7"/>
        <path d="M155 510C155 518.28 161.73 525 170 525C178.28 525 185 518.28 185 510C185 501.72 178.28 495 170 495C161.73 495 155 501.72 155 510Z" id="a1NTnjq7vj"/>
        <path d="M325 510C325 518.28 331.72 525 340 525C348.28 525 355 518.28 355 510C355 501.72 348.28 495 340 495C331.72 495 325 501.72 325 510Z" id="dmhpPbhvN"/>
        <path d="M240 510C240 518.28 246.72 525 255 525C263.28 525 270 518.28 270 510C270 501.72 263.28 495 255 495C246.72 495 240 501.72 240 510Z" id="a8vDd0biwF"/>
        <path d="M410 510C410 518.28 416.72 525 425 525C433.28 525 440 518.28 440 510C440 501.72 433.28 495 425 495C416.72 495 410 501.72 410 510Z" id="hGHTnLDVA"/>
        <path d="M580 510C580 518.28 586.72 525 595 525C603.28 525 610 518.28 610 510C610 501.72 603.28 495 595 495C586.72 495 580 501.72 580 510Z" id="adHsJf1kR"/>
        <path d="M495 510C495 518.28 501.72 525 510 525C518.28 525 525 518.28 525 510C525 501.72 518.28 495 510 495C501.72 495 495 501.72 495 510Z" id="g2sJMaeTye"/>
        <path d="M665 510C665 518.28 671.72 525 680 525C688.28 525 695 518.28 695 510C695 501.72 688.28 495 680 495C671.72 495 665 501.72 665 510Z" id="d6k6L48hyw"/>
        <path d="M70 595.01C70 603.28 76.72 610.01 85 610.01C93.28 610.01 100 603.28 100 595.01C100 586.73 93.28 580.01 85 580.01C76.72 580.01 70 586.73 70 595.01Z" id="ge9sm06lD"/>
        <path d="M-15 595.01C-15 603.28 -8.28 610.01 0 610.01C8.28 610.01 15 603.28 15 595.01C15 586.73 8.28 580.01 0 580.01C-8.28 580.01 -15 586.73 -15 595.01Z" id="c1mj6bGdMW"/>
        <path d="M155 595.01C155 603.28 161.73 610.01 170 610.01C178.28 610.01 185 603.28 185 595.01C185 586.73 178.28 580.01 170 580.01C161.73 580.01 155 586.73 155 595.01Z" id="c38Z4imtqt"/>
        <path d="M325 595.01C325 603.28 331.72 610.01 340 610.01C348.28 610.01 355 603.28 355 595.01C355 586.73 348.28 580.01 340 580.01C331.72 580.01 325 586.73 325 595.01Z" id="d2Bb8JgsQe"/>
        <path d="M240 595.01C240 603.28 246.72 610.01 255 610.01C263.28 610.01 270 603.28 270 595.01C270 586.73 263.28 580.01 255 580.01C246.72 580.01 240 586.73 240 595.01Z" id="dkFCarttX"/>
        <path d="M410 595.01C410 603.28 416.72 610.01 425 610.01C433.28 610.01 440 603.28 440 595.01C440 586.73 433.28 580.01 425 580.01C416.72 580.01 410 586.73 410 595.01Z" id="f3nHc40v0A"/>
        <path d="M580 595.01C580 603.28 586.72 610.01 595 610.01C603.28 610.01 610 603.28 610 595.01C610 586.73 603.28 580.01 595 580.01C586.72 580.01 580 586.73 580 595.01Z" id="b7BT8dX2UE"/>
        <path d="M495 595.01C495 603.28 501.72 610.01 510 610.01C518.28 610.01 525 603.28 525 595.01C525 586.73 518.28 580.01 510 580.01C501.72 580.01 495 586.73 495 595.01Z" id="a34CkSjLPV"/>
        <path d="M665 595.01C665 603.28 671.72 610.01 680 610.01C688.28 610.01 695 603.28 695 595.01C695 586.73 688.28 580.01 680 580.01C671.72 580.01 665 586.73 665 595.01Z" id="bOYBdP8Ww"/>
        <path d="M70 680C70 688.28 76.72 695 85 695C93.28 695 100 688.28 100 680C100 671.72 93.28 665 85 665C76.72 665 70 671.72 70 680Z" id="a5A2unCI1"/>
        <path d="M-15 680C-15 688.28 -8.28 695 0 695C8.28 695 15 688.28 15 680C15 671.72 8.28 665 0 665C-8.28 665 -15 671.72 -15 680Z" id="dLTyFlXds"/>
        <path d="M155 680C155 688.28 161.72 695 170 695C178.28 695 185 688.28 185 680C185 671.72 178.28 665 170 665C161.72 665 155 671.72 155 680Z" id="e8CAEVnYqx"/>
        <path d="M325 680C325 688.28 331.72 695 340 695C348.28 695 355 688.28 355 680C355 671.72 348.28 665 340 665C331.72 665 325 671.72 325 680Z" id="a1Fa051CeO"/>
        <path d="M240 680C240 688.28 246.72 695 255 695C263.27 695 270 688.28 270 680C270 671.72 263.27 665 255 665C246.72 665 240 671.72 240 680Z" id="j3tM5TDZeQ"/>
        <path d="M410 680C410 688.28 416.72 695 425 695C433.28 695 440 688.28 440 680C440 671.72 433.28 665 425 665C416.72 665 410 671.72 410 680Z" id="aPnourelu"/>
        <path d="M580 680C580 688.28 586.72 695 595 695C603.28 695 610 688.28 610 680C610 671.72 603.28 665 595 665C586.72 665 580 671.72 580 680Z" id="b3q6JmX0Wh"/>
        <path d="M495 680C495 688.28 501.72 695 510 695C518.28 695 525 688.28 525 680C525 671.72 518.28 665 510 665C501.72 665 495 671.72 495 680Z" id="aSaTPd3X"/>
        <path d="M665 680C665 688.28 671.72 695 680 695C688.28 695 695 688.28 695 680C695 671.72 688.28 665 680 665C671.72 665 665 671.72 665 680Z" id="b37zBevCZ"/>
        <path d="M112.51 42.5C112.51 50.77 119.23 57.5 127.51 57.5C135.79 57.5 142.51 50.77 142.51 42.5C142.51 34.22 135.79 27.5 127.51 27.5C119.23 27.5 112.51 34.22 112.51 42.5Z" id="aloeM3t7Z"/>
        <path d="M27.5 42.5C27.5 50.77 34.23 57.5 42.5 57.5C50.78 57.5 57.5 50.77 57.5 42.5C57.5 34.22 50.78 27.5 42.5 27.5C34.23 27.5 27.5 34.22 27.5 42.5Z" id="d3b0Puetr"/>
        <path d="M197.51 42.5C197.51 50.77 204.23 57.5 212.51 57.5C220.79 57.5 227.51 50.77 227.51 42.5C227.51 34.22 220.79 27.5 212.51 27.5C204.23 27.5 197.51 34.22 197.51 42.5Z" id="blCE9sD5H"/>
        <path d="M367.51 42.5C367.51 50.77 374.23 57.5 382.51 57.5C390.78 57.5 397.51 50.77 397.51 42.5C397.51 34.22 390.78 27.5 382.51 27.5C374.23 27.5 367.51 34.22 367.51 42.5Z" id="d8pIE9mG"/>
        <path d="M282.5 42.5C282.5 50.77 289.22 57.5 297.5 57.5C305.78 57.5 312.5 50.77 312.5 42.5C312.5 34.22 305.78 27.5 297.5 27.5C289.22 27.5 282.5 34.22 282.5 42.5Z" id="c1NQtQuRU4"/>
        <path d="M452.51 42.5C452.51 50.77 459.23 57.5 467.51 57.5C475.79 57.5 482.51 50.77 482.51 42.5C482.51 34.22 475.79 27.5 467.51 27.5C459.23 27.5 452.51 34.22 452.51 42.5Z" id="b3kiSA1MTP"/>
        <path d="M622.51 42.5C622.51 50.77 629.23 57.5 637.51 57.5C645.79 57.5 652.51 50.77 652.51 42.5C652.51 34.22 645.79 27.5 637.51 27.5C629.23 27.5 622.51 34.22 622.51 42.5Z" id="d2o9pdTkka"/>
        <path d="M537.5 42.5C537.5 50.77 544.23 57.5 552.5 57.5C560.78 57.5 567.5 50.77 567.5 42.5C567.5 34.22 560.78 27.5 552.5 27.5C544.23 27.5 537.5 34.22 537.5 42.5Z" id="a20mqhpE8b"/>
        <path d="M707.51 42.5C707.51 50.77 714.23 57.5 722.51 57.5C730.79 57.5 737.51 50.77 737.51 42.5C737.51 34.22 730.79 27.5 722.51 27.5C714.23 27.5 707.51 34.22 707.51 42.5Z" id="aWxqtKaWd"/>
        <path d="M112.51 127.5C112.51 135.78 119.23 142.5 127.51 142.5C135.79 142.5 142.51 135.78 142.51 127.5C142.51 119.22 135.79 112.5 127.51 112.5C119.23 112.5 112.51 119.22 112.51 127.5Z" id="k3D0kOCELe"/>
        <path d="M27.5 127.5C27.5 135.78 34.23 142.5 42.5 142.5C50.78 142.5 57.5 135.78 57.5 127.5C57.5 119.22 50.78 112.5 42.5 112.5C34.23 112.5 27.5 119.22 27.5 127.5Z" id="a3GilDVUx0"/>
        <path d="M197.51 127.5C197.51 135.78 204.23 142.5 212.51 142.5C220.79 142.5 227.51 135.78 227.51 127.5C227.51 119.22 220.79 112.5 212.51 112.5C204.23 112.5 197.51 119.22 197.51 127.5Z" id="aU29XTqh2"/>
        <path d="M367.51 127.5C367.51 135.78 374.23 142.5 382.51 142.5C390.78 142.5 397.51 135.78 397.51 127.5C397.51 119.22 390.78 112.5 382.51 112.5C374.23 112.5 367.51 119.22 367.51 127.5Z" id="b1hpm6qjnc"/>
        <path d="M282.5 127.5C282.5 135.78 289.22 142.5 297.5 142.5C305.78 142.5 312.5 135.78 312.5 127.5C312.5 119.22 305.78 112.5 297.5 112.5C289.22 112.5 282.5 119.22 282.5 127.5Z" id="cqUaF67vd"/>
        <path d="M452.51 127.5C452.51 135.78 459.23 142.5 467.51 142.5C475.79 142.5 482.51 135.78 482.51 127.5C482.51 119.22 475.79 112.5 467.51 112.5C459.23 112.5 452.51 119.22 452.51 127.5Z" id="b1e7I25elT"/>
        <path d="M622.51 127.5C622.51 135.78 629.23 142.5 637.51 142.5C645.79 142.5 652.51 135.78 652.51 127.5C652.51 119.22 645.79 112.5 637.51 112.5C629.23 112.5 622.51 119.22 622.51 127.5Z" id="b1gUVyjOpN"/>
        <path d="M537.5 127.5C537.5 135.78 544.23 142.5 552.5 142.5C560.78 142.5 567.5 135.78 567.5 127.5C567.5 119.22 560.78 112.5 552.5 112.5C544.23 112.5 537.5 119.22 537.5 127.5Z" id="b1a9TJHGEB"/>
        <path d="M707.51 127.5C707.51 135.78 714.23 142.5 722.51 142.5C730.79 142.5 737.51 135.78 737.51 127.5C737.51 119.22 730.79 112.5 722.51 112.5C714.23 112.5 707.51 119.22 707.51 127.5Z" id="itkWqIXhx"/>
        <path d="M112.51 212.49C112.51 220.77 119.23 227.49 127.51 227.49C135.78 227.49 142.51 220.77 142.51 212.49C142.51 204.22 135.78 197.49 127.51 197.49C119.23 197.49 112.51 204.22 112.51 212.49Z" id="a4T5ND0Nl"/>
        <path d="M27.5 212.49C27.5 220.77 34.22 227.49 42.5 227.49C50.78 227.49 57.5 220.77 57.5 212.49C57.5 204.22 50.78 197.49 42.5 197.49C34.22 197.49 27.5 204.22 27.5 212.49Z" id="aUragpW34"/>
        <path d="M197.51 212.49C197.51 220.77 204.23 227.49 212.51 227.49C220.79 227.49 227.51 220.77 227.51 212.49C227.51 204.22 220.79 197.49 212.51 197.49C204.23 197.49 197.51 204.22 197.51 212.49Z" id="cKnD9sDs4"/>
        <path d="M367.5 212.49C367.5 220.77 374.23 227.49 382.5 227.49C390.78 227.49 397.5 220.77 397.5 212.49C397.5 204.22 390.78 197.49 382.5 197.49C374.23 197.49 367.5 204.22 367.5 212.49Z" id="f6JG77eSJ"/>
        <path d="M282.5 212.49C282.5 220.77 289.22 227.49 297.5 227.49C305.78 227.49 312.5 220.77 312.5 212.49C312.5 204.22 305.78 197.49 297.5 197.49C289.22 197.49 282.5 204.22 282.5 212.49Z" id="a1xdgb3nu3"/>
        <path d="M452.51 212.49C452.51 220.77 459.23 227.49 467.51 227.49C475.78 227.49 482.51 220.77 482.51 212.49C482.51 204.22 475.78 197.49 467.51 197.49C459.23 197.49 452.51 204.22 452.51 212.49Z" id="a1BWzKQEd"/>
        <path d="M622.5 212.49C622.5 220.77 629.23 227.49 637.5 227.49C645.78 227.49 652.5 220.77 652.5 212.49C652.5 204.22 645.78 197.49 637.5 197.49C629.23 197.49 622.5 204.22 622.5 212.49Z" id="i4rO9J2VOU"/>
        <path d="M537.5 212.49C537.5 220.77 544.22 227.49 552.5 227.49C560.78 227.49 567.5 220.77 567.5 212.49C567.5 204.22 560.78 197.49 552.5 197.49C544.22 197.49 537.5 204.22 537.5 212.49Z" id="d10dFazGQN"/>
        <path d="M707.51 212.49C707.51 220.77 714.23 227.49 722.51 227.49C730.79 227.49 737.51 220.77 737.51 212.49C737.51 204.22 730.79 197.49 722.51 197.49C714.23 197.49 707.51 204.22 707.51 212.49Z" id="a7sSjAWkRR"/>
        <path d="M112.51 297.5C112.51 305.78 119.23 312.5 127.51 312.5C135.78 312.5 142.51 305.78 142.51 297.5C142.51 289.22 135.78 282.5 127.51 282.5C119.23 282.5 112.51 289.22 112.51 297.5Z" id="a16nJiEvyK"/>
        <path d="M27.5 297.5C27.5 305.78 34.22 312.5 42.5 312.5C50.78 312.5 57.5 305.78 57.5 297.5C57.5 289.22 50.78 282.5 42.5 282.5C34.22 282.5 27.5 289.22 27.5 297.5Z" id="bTX7PkkWN"/>
        <path d="M197.51 297.5C197.51 305.78 204.23 312.5 212.51 312.5C220.79 312.5 227.51 305.78 227.51 297.5C227.51 289.22 220.79 282.5 212.51 282.5C204.23 282.5 197.51 289.22 197.51 297.5Z" id="bOFkgYG0f"/>
        <path d="M367.5 297.5C367.5 305.78 374.23 312.5 382.5 312.5C390.78 312.5 397.5 305.78 397.5 297.5C397.5 289.22 390.78 282.5 382.5 282.5C374.23 282.5 367.5 289.22 367.5 297.5Z" id="a6ggnK9Rik"/>
        <path d="M282.5 297.5C282.5 305.78 289.22 312.5 297.5 312.5C305.78 312.5 312.5 305.78 312.5 297.5C312.5 289.22 305.78 282.5 297.5 282.5C289.22 282.5 282.5 289.22 282.5 297.5Z" id="b26YAacIDo"/>
        <path d="M452.51 297.5C452.51 305.78 459.23 312.5 467.51 312.5C475.78 312.5 482.51 305.78 482.51 297.5C482.51 289.22 475.78 282.5 467.51 282.5C459.23 282.5 452.51 289.22 452.51 297.5Z" id="b41d7VTAWK"/>
        <path d="M622.5 297.5C622.5 305.78 629.23 312.5 637.5 312.5C645.78 312.5 652.5 305.78 652.5 297.5C652.5 289.22 645.78 282.5 637.5 282.5C629.23 282.5 622.5 289.22 622.5 297.5Z" id="a6xprEXnVw"/>
        <path d="M537.5 297.5C537.5 305.78 544.22 312.5 552.5 312.5C560.78 312.5 567.5 305.78 567.5 297.5C567.5 289.22 560.78 282.5 552.5 282.5C544.22 282.5 537.5 289.22 537.5 297.5Z" id="a10BcWr7D9"/>
        <path d="M707.51 297.5C707.51 305.78 714.23 312.5 722.51 312.5C730.79 312.5 737.51 305.78 737.51 297.5C737.51 289.22 730.79 282.5 722.51 282.5C714.23 282.5 707.51 289.22 707.51 297.5Z" id="d3ujmMCJll"/>
        <path d="M112.51 382.5C112.51 390.78 119.23 397.5 127.51 397.5C135.79 397.5 142.51 390.78 142.51 382.5C142.51 374.22 135.79 367.5 127.51 367.5C119.23 367.5 112.51 374.22 112.51 382.5Z" id="a2qPsLzxS"/>
        <path d="M27.51 382.5C27.51 390.78 34.23 397.5 42.51 397.5C50.78 397.5 57.51 390.78 57.51 382.5C57.51 374.22 50.78 367.5 42.51 367.5C34.23 367.5 27.51 374.22 27.51 382.5Z" id="ilZqGB9Jk"/>
        <path d="M197.51 382.5C197.51 390.78 204.23 397.5 212.51 397.5C220.79 397.5 227.51 390.78 227.51 382.5C227.51 374.22 220.79 367.5 212.51 367.5C204.23 367.5 197.51 374.22 197.51 382.5Z" id="c19c1TUdi9"/>
        <path d="M367.51 382.5C367.51 390.78 374.23 397.5 382.51 397.5C390.79 397.5 397.51 390.78 397.51 382.5C397.51 374.22 390.79 367.5 382.51 367.5C374.23 367.5 367.51 374.22 367.51 382.5Z" id="a14lrxtfSv"/>
        <path d="M282.5 382.5C282.5 390.78 289.23 397.5 297.5 397.5C305.78 397.5 312.5 390.78 312.5 382.5C312.5 374.22 305.78 367.5 297.5 367.5C289.23 367.5 282.5 374.22 282.5 382.5Z" id="dYyNPRite"/>
        <path d="M452.51 382.5C452.51 390.78 459.23 397.5 467.51 397.5C475.79 397.5 482.51 390.78 482.51 382.5C482.51 374.22 475.79 367.5 467.51 367.5C459.23 367.5 452.51 374.22 452.51 382.5Z" id="bkl3HY24D"/>
        <path d="M622.51 382.5C622.51 390.78 629.23 397.5 637.51 397.5C645.79 397.5 652.51 390.78 652.51 382.5C652.51 374.22 645.79 367.5 637.51 367.5C629.23 367.5 622.51 374.22 622.51 382.5Z" id="a14VI92DFO"/>
        <path d="M537.51 382.5C537.51 390.78 544.23 397.5 552.51 397.5C560.78 397.5 567.51 390.78 567.51 382.5C567.51 374.22 560.78 367.5 552.51 367.5C544.23 367.5 537.51 374.22 537.51 382.5Z" id="c4KzFf44Ct"/>
        <path d="M707.51 382.5C707.51 390.78 714.23 397.5 722.51 397.5C730.79 397.5 737.51 390.78 737.51 382.5C737.51 374.22 730.79 367.5 722.51 367.5C714.23 367.5 707.51 374.22 707.51 382.5Z" id="dA3XI4FNC"/>
        <path d="M112.51 467.5C112.51 475.78 119.23 482.5 127.51 482.5C135.79 482.5 142.51 475.78 142.51 467.5C142.51 459.22 135.79 452.5 127.51 452.5C119.23 452.5 112.51 459.22 112.51 467.5Z" id="aB1FNH8FI"/>
        <path d="M27.51 467.5C27.51 475.78 34.23 482.5 42.51 482.5C50.78 482.5 57.51 475.78 57.51 467.5C57.51 459.22 50.78 452.5 42.51 452.5C34.23 452.5 27.51 459.22 27.51 467.5Z" id="bbhKgOJCu"/>
        <path d="M197.51 467.5C197.51 475.78 204.23 482.5 212.51 482.5C220.79 482.5 227.51 475.78 227.51 467.5C227.51 459.22 220.79 452.5 212.51 452.5C204.23 452.5 197.51 459.22 197.51 467.5Z" id="djyxGqEKW"/>
        <path d="M367.51 467.5C367.51 475.78 374.23 482.5 382.51 482.5C390.79 482.5 397.51 475.78 397.51 467.5C397.51 459.22 390.79 452.5 382.51 452.5C374.23 452.5 367.51 459.22 367.51 467.5Z" id="b7q1WFdbyH"/>
        <path d="M282.5 467.5C282.5 475.78 289.23 482.5 297.5 482.5C305.78 482.5 312.5 475.78 312.5 467.5C312.5 459.22 305.78 452.5 297.5 452.5C289.23 452.5 282.5 459.22 282.5 467.5Z" id="g14tku78bn"/>
        <path d="M452.51 467.5C452.51 475.78 459.23 482.5 467.51 482.5C475.79 482.5 482.51 475.78 482.51 467.5C482.51 459.22 475.79 452.5 467.51 452.5C459.23 452.5 452.51 459.22 452.51 467.5Z" id="bhAsq0gX9"/>
        <path d="M622.51 467.5C622.51 475.78 629.23 482.5 637.51 482.5C645.79 482.5 652.51 475.78 652.51 467.5C652.51 459.22 645.79 452.5 637.51 452.5C629.23 452.5 622.51 459.22 622.51 467.5Z" id="aFediTxSI"/>
        <path d="M537.51 467.5C537.51 475.78 544.23 482.5 552.51 482.5C560.78 482.5 567.51 475.78 567.51 467.5C567.51 459.22 560.78 452.5 552.51 452.5C544.23 452.5 537.51 459.22 537.51 467.5Z" id="a4cnNeyLm4"/>
        <path d="M707.51 467.5C707.51 475.78 714.23 482.5 722.51 482.5C730.79 482.5 737.51 475.78 737.51 467.5C737.51 459.22 730.79 452.5 722.51 452.5C714.23 452.5 707.51 459.22 707.51 467.5Z" id="bPHte2Lln"/>
        <path d="M112.51 552.5C112.51 560.77 119.23 567.5 127.51 567.5C135.79 567.5 142.51 560.77 142.51 552.5C142.51 544.22 135.79 537.5 127.51 537.5C119.23 537.5 112.51 544.22 112.51 552.5Z" id="d2Z6oAVXt7"/>
        <path d="M27.5 552.5C27.5 560.78 34.23 567.5 42.5 567.5C50.78 567.5 57.5 560.78 57.5 552.5C57.5 544.22 50.78 537.5 42.5 537.5C34.23 537.5 27.5 544.22 27.5 552.5Z" id="e9ZSDwTeS"/>
        <path d="M197.51 552.5C197.51 560.77 204.23 567.5 212.51 567.5C220.79 567.5 227.51 560.77 227.51 552.5C227.51 544.22 220.79 537.5 212.51 537.5C204.23 537.5 197.51 544.22 197.51 552.5Z" id="f2rHcOazjP"/>
        <path d="M367.51 552.5C367.51 560.77 374.23 567.5 382.51 567.5C390.78 567.5 397.51 560.77 397.51 552.5C397.51 544.22 390.78 537.5 382.51 537.5C374.23 537.5 367.51 544.22 367.51 552.5Z" id="cFGMsbsLw"/>
        <path d="M282.5 552.5C282.5 560.78 289.22 567.5 297.5 567.5C305.78 567.5 312.5 560.78 312.5 552.5C312.5 544.22 305.78 537.5 297.5 537.5C289.22 537.5 282.5 544.22 282.5 552.5Z" id="abkIjcq83"/>
        <path d="M452.51 552.5C452.51 560.77 459.23 567.5 467.51 567.5C475.79 567.5 482.51 560.77 482.51 552.5C482.51 544.22 475.79 537.5 467.51 537.5C459.23 537.5 452.51 544.22 452.51 552.5Z" id="dvLYwBfMy"/>
        <path d="M622.51 552.5C622.51 560.77 629.23 567.5 637.51 567.5C645.79 567.5 652.51 560.77 652.51 552.5C652.51 544.22 645.79 537.5 637.51 537.5C629.23 537.5 622.51 544.22 622.51 552.5Z" id="n1PXJ8Cwoc"/>
        <path d="M537.5 552.5C537.5 560.77 544.23 567.5 552.5 567.5C560.78 567.5 567.5 560.77 567.5 552.5C567.5 544.22 560.78 537.5 552.5 537.5C544.23 537.5 537.5 544.22 537.5 552.5Z" id="b7MWFACYgo"/>
        <path d="M707.51 552.5C707.51 560.77 714.23 567.5 722.51 567.5C730.79 567.5 737.51 560.77 737.51 552.5C737.51 544.22 730.79 537.5 722.51 537.5C714.23 537.5 707.51 544.22 707.51 552.5Z" id="cxUUIbVvI"/>
        <path d="M112.51 637.5C112.51 645.78 119.23 652.5 127.51 652.5C135.79 652.5 142.51 645.78 142.51 637.5C142.51 629.22 135.79 622.5 127.51 622.5C119.23 622.5 112.51 629.22 112.51 637.5Z" id="m36ESUCAAz"/>
        <path d="M27.5 637.5C27.5 645.78 34.23 652.5 42.5 652.5C50.78 652.5 57.5 645.78 57.5 637.5C57.5 629.22 50.78 622.5 42.5 622.5C34.23 622.5 27.5 629.22 27.5 637.5Z" id="e1z4HVgrzb"/>
        <path d="M197.51 637.5C197.51 645.78 204.23 652.5 212.51 652.5C220.79 652.5 227.51 645.78 227.51 637.5C227.51 629.22 220.79 622.5 212.51 622.5C204.23 622.5 197.51 629.22 197.51 637.5Z" id="ccfnvCZEy"/>
        <path d="M367.51 637.5C367.51 645.78 374.23 652.5 382.51 652.5C390.78 652.5 397.51 645.78 397.51 637.5C397.51 629.22 390.78 622.5 382.51 622.5C374.23 622.5 367.51 629.22 367.51 637.5Z" id="aRFPnPWXz"/>
        <path d="M282.5 637.5C282.5 645.78 289.22 652.5 297.5 652.5C305.78 652.5 312.5 645.78 312.5 637.5C312.5 629.22 305.78 622.5 297.5 622.5C289.22 622.5 282.5 629.22 282.5 637.5Z" id="f1pRv3AdB"/>
        <path d="M452.51 637.5C452.51 645.78 459.23 652.5 467.51 652.5C475.79 652.5 482.51 645.78 482.51 637.5C482.51 629.22 475.79 622.5 467.51 622.5C459.23 622.5 452.51 629.22 452.51 637.5Z" id="aeEmpcXwi"/>
        <path d="M622.51 637.5C622.51 645.78 629.23 652.5 637.51 652.5C645.79 652.5 652.51 645.78 652.51 637.5C652.51 629.22 645.79 622.5 637.51 622.5C629.23 622.5 622.51 629.22 622.51 637.5Z" id="b5sKleqUCn"/>
        <path d="M537.5 637.5C537.5 645.78 544.23 652.5 552.5 652.5C560.78 652.5 567.5 645.78 567.5 637.5C567.5 629.22 560.78 622.5 552.5 622.5C544.23 622.5 537.5 629.22 537.5 637.5Z" id="acV3GT0fE"/>
        <path d="M707.51 637.5C707.51 645.78 714.23 652.5 722.51 652.5C730.79 652.5 737.51 645.78 737.51 637.5C737.51 629.22 730.79 622.5 722.51 622.5C714.23 622.5 707.51 629.22 707.51 637.5Z" id="a17TSBiC7Q"/>
        <path d="M112.51 722.5C112.51 730.77 119.23 737.5 127.51 737.5C135.78 737.5 142.51 730.77 142.51 722.5C142.51 714.22 135.78 707.5 127.51 707.5C119.23 707.5 112.51 714.22 112.51 722.5Z" id="aqi1EMpsH"/>
        <path d="M27.5 722.5C27.5 730.77 34.22 737.5 42.5 737.5C50.78 737.5 57.5 730.77 57.5 722.5C57.5 714.22 50.78 707.5 42.5 707.5C34.22 707.5 27.5 714.22 27.5 722.5Z" id="b4eq67TRa2"/>
        <path d="M197.51 722.5C197.51 730.77 204.23 737.5 212.51 737.5C220.79 737.5 227.51 730.77 227.51 722.5C227.51 714.22 220.79 707.5 212.51 707.5C204.23 707.5 197.51 714.22 197.51 722.5Z" id="aK4jM67XM"/>
        <path d="M367.5 722.5C367.5 730.77 374.23 737.5 382.5 737.5C390.78 737.5 397.5 730.77 397.5 722.5C397.5 714.22 390.78 707.5 382.5 707.5C374.23 707.5 367.5 714.22 367.5 722.5Z" id="b314TTetr8"/>
        <path d="M282.5 722.5C282.5 730.77 289.22 737.5 297.5 737.5C305.78 737.5 312.5 730.77 312.5 722.5C312.5 714.22 305.78 707.5 297.5 707.5C289.22 707.5 282.5 714.22 282.5 722.5Z" id="a3U9Y290FT"/>
        <path d="M452.51 722.5C452.51 730.77 459.23 737.5 467.51 737.5C475.78 737.5 482.51 730.77 482.51 722.5C482.51 714.22 475.78 707.5 467.51 707.5C459.23 707.5 452.51 714.22 452.51 722.5Z" id="hmKfsQ24D"/>
        <path d="M622.5 722.5C622.5 730.77 629.23 737.5 637.5 737.5C645.78 737.5 652.5 730.77 652.5 722.5C652.5 714.22 645.78 707.5 637.5 707.5C629.23 707.5 622.5 714.22 622.5 722.5Z" id="bpOWjySh"/>
        <path d="M537.5 722.5C537.5 730.77 544.22 737.5 552.5 737.5C560.78 737.5 567.5 730.77 567.5 722.5C567.5 714.22 560.78 707.5 552.5 707.5C544.22 707.5 537.5 714.22 537.5 722.5Z" id="c7f9Nc5oMN"/>
        <path d="M707.51 722.5C707.51 730.77 714.23 737.5 722.51 737.5C730.79 737.5 737.51 730.77 737.51 722.5C737.51 714.22 730.79 707.5 722.51 707.5C714.23 707.5 707.51 714.22 707.51 722.5Z" id="f4AZD6a0TC"/>
    </defs>
    <g>
        <g>
            <g><use xlink:href="#bBTbwOD6P"/></g>
            <g><use xlink:href="#afDknzUNs"/></g>
            <g><use xlink:href="#fTP2gBRY0"/></g>
            <g><use xlink:href="#a3SmNSEQjM"/></g>
            <g><use xlink:href="#ftiwlx8IK"/></g>
            <g><use xlink:href="#aifVU2AKk"/></g>
            <g><use xlink:href="#b2ZUpqg1Lo"/></g>
            <g><use xlink:href="#bOsHCykt1"/></g>
            <g><use xlink:href="#f1yZnxaDxL"/></g>
            <g><use xlink:href="#a3hO8B4Aiw"/></g>
            <g><use xlink:href="#agIyq46FX"/></g>
            <g><use xlink:href="#d9476mQvm"/></g>
            <g><use xlink:href="#f31Qvg8XUy"/></g>
            <g><use xlink:href="#aFtPkcilA"/></g>
            <g><use xlink:href="#f1I5xcnU5f"/></g>
            <g><use xlink:href="#aA5yvMaxK"/></g>
            <g><use xlink:href="#b4Ycpp0VN"/></g>
            <g><use xlink:href="#cfzmfiq64"/></g>
            <g><use xlink:href="#eexxUnDQD"/></g>
            <g><use xlink:href="#a5wMjDS7zP"/></g>
            <g><use xlink:href="#a2Nq1FNrvM"/></g>
            <g><use xlink:href="#mt6GQMrRR"/></g>
            <g><use xlink:href="#e5iwRFaQN"/></g>
            <g><use xlink:href="#bXNc5bbVz"/></g>
            <g><use xlink:href="#ahitpRwjr"/></g>
            <g><use xlink:href="#b8iit9daY"/></g>
            <g><use xlink:href="#c17iFPDkLx"/></g>
            <g><use xlink:href="#d4CuwbbcUB"/></g>
            <g><use xlink:href="#a2HOKk05Zz"/></g>
            <g><use xlink:href="#b35ZTlkOtc"/></g>
            <g><use xlink:href="#a9jhBYQLH"/></g>
            <g><use xlink:href="#aa7hr8rp"/></g>
            <g><use xlink:href="#h79nsM21e"/></g>
            <g><use xlink:href="#a2qybWlimk"/></g>
            <g><use xlink:href="#c3BWwvCQc"/></g>
            <g><use xlink:href="#b1gNWdkpca"/></g>
            <g><use xlink:href="#bvUHLL4T0"/></g>
            <g><use xlink:href="#a2ueoGOzwe"/></g>
            <g><use xlink:href="#c4x4LyOe6s"/></g>
            <g><use xlink:href="#c1grAHaIam"/></g>
            <g><use xlink:href="#a7tv0KRPnH"/></g>
            <g><use xlink:href="#bnn6n604d"/></g>
            <g><use xlink:href="#a1GWy3uNT"/></g>
            <g><use xlink:href="#a2r86ZSq2Y"/></g>
            <g><use xlink:href="#d20jVg1Tnq"/></g>
            <g><use xlink:href="#bcExg99OX"/></g>
            <g><use xlink:href="#a6OOT88oz"/></g>
            <g><use xlink:href="#h6fAQFuq0p"/></g>
            <g><use xlink:href="#a4swhTn768"/></g>
            <g><use xlink:href="#b2ZEZF4oz"/></g>
            <g><use xlink:href="#a4pDzdmpbA"/></g>
            <g><use xlink:href="#a3iEQRbDJ4"/></g>
            <g><use xlink:href="#d3yosEB8mq"/></g>
            <g><use xlink:href="#bFjdtPHpZ"/></g>
            <g><use xlink:href="#b1jBBq1cqn"/></g>
            <g><use xlink:href="#e4AKXvU8U7"/></g>
            <g><use xlink:href="#a1NTnjq7vj"/></g>
            <g><use xlink:href="#dmhpPbhvN"/></g>
            <g><use xlink:href="#a8vDd0biwF"/></g>
            <g><use xlink:href="#hGHTnLDVA"/></g>
            <g><use xlink:href="#adHsJf1kR"/></g>
            <g><use xlink:href="#g2sJMaeTye"/></g>
            <g><use xlink:href="#d6k6L48hyw"/></g>
            <g><use xlink:href="#ge9sm06lD"/></g>
            <g><use xlink:href="#c1mj6bGdMW"/></g>
            <g><use xlink:href="#c38Z4imtqt"/></g>
            <g><use xlink:href="#d2Bb8JgsQe"/></g>
            <g><use xlink:href="#dkFCarttX"/></g>
            <g><use xlink:href="#f3nHc40v0A"/></g>
            <g><use xlink:href="#b7BT8dX2UE"/></g>
            <g><use xlink:href="#a34CkSjLPV"/></g>
            <g><use xlink:href="#bOYBdP8Ww"/></g>
            <g><use xlink:href="#a5A2unCI1"/></g>
            <g><use xlink:href="#dLTyFlXds"/></g>
            <g><use xlink:href="#e8CAEVnYqx"/></g>
            <g><use xlink:href="#a1Fa051CeO"/></g>
            <g><use xlink:href="#j3tM5TDZeQ"/></g>
            <g><use xlink:href="#aPnourelu"/></g>
            <g><use xlink:href="#b3q6JmX0Wh"/></g>
            <g><use xlink:href="#aSaTPd3X"/></g>
            <g><use xlink:href="#b37zBevCZ"/></g>
            <g><use xlink:href="#aloeM3t7Z"/></g>
            <g><use xlink:href="#d3b0Puetr"/></g>
            <g><use xlink:href="#blCE9sD5H"/></g>
            <g><use xlink:href="#d8pIE9mG"/></g>
            <g><use xlink:href="#c1NQtQuRU4"/></g>
            <g><use xlink:href="#b3kiSA1MTP"/></g>
            <g><use xlink:href="#d2o9pdTkka"/></g>
            <g><use xlink:href="#a20mqhpE8b"/></g>
            <g><use xlink:href="#aWxqtKaWd"/></g>
            <g><use xlink:href="#k3D0kOCELe"/></g>
            <g><use xlink:href="#a3GilDVUx0"/></g>
            <g><use xlink:href="#aU29XTqh2"/></g>
            <g><use xlink:href="#b1hpm6qjnc"/></g>
            <g><use xlink:href="#cqUaF67vd"/></g>
            <g><use xlink:href="#b1e7I25elT"/></g>
            <g><use xlink:href="#b1gUVyjOpN"/></g>
            <g><use xlink:href="#b1a9TJHGEB"/></g>
            <g><use xlink:href="#itkWqIXhx"/></g>
            <g><use xlink:href="#a4T5ND0Nl"/></g>
            <g><use xlink:href="#aUragpW34"/></g>
            <g><use xlink:href="#cKnD9sDs4"/></g>
            <g><use xlink:href="#f6JG77eSJ"/></g>
            <g><use xlink:href="#a1xdgb3nu3"/></g>
            <g><use xlink:href="#a1BWzKQEd"/></g>
            <g><use xlink:href="#i4rO9J2VOU"/></g>
            <g><use xlink:href="#d10dFazGQN"/></g>
            <g><use xlink:href="#a7sSjAWkRR"/></g>
            <g><use xlink:href="#a16nJiEvyK"/></g>
            <g><use xlink:href="#bTX7PkkWN"/></g>
            <g><use xlink:href="#bOFkgYG0f"/></g>
            <g><use xlink:href="#a6ggnK9Rik"/></g>
            <g><use xlink:href="#b26YAacIDo"/></g>
            <g><use xlink:href="#b41d7VTAWK"/></g>
            <g><use xlink:href="#a6xprEXnVw"/></g>
            <g><use xlink:href="#a10BcWr7D9"/></g>
            <g><use xlink:href="#d3ujmMCJll"/></g>
            <g><use xlink:href="#a2qPsLzxS"/></g>
            <g><use xlink:href="#ilZqGB9Jk"/></g>
            <g><use xlink:href="#c19c1TUdi9"/></g>
            <g><use xlink:href="#a14lrxtfSv"/></g>
            <g><use xlink:href="#dYyNPRite"/></g>
            <g><use xlink:href="#bkl3HY24D"/></g>
            <g><use xlink:href="#a14VI92DFO"/></g>
            <g><use xlink:href="#c4KzFf44Ct"/></g>
            <g><use xlink:href="#dA3XI4FNC"/></g>
            <g><use xlink:href="#aB1FNH8FI"/></g>
            <g><use xlink:href="#bbhKgOJCu"/></g>
            <g><use xlink:href="#djyxGqEKW"/></g>
            <g><use xlink:href="#b7q1WFdbyH"/></g>
            <g><use xlink:href="#g14tku78bn"/></g>
            <g><use xlink:href="#bhAsq0gX9"/></g>
            <g><use xlink:href="#aFediTxSI"/></g>
            <g><use xlink:href="#a4cnNeyLm4"/></g>
            <g><use xlink:href="#bPHte2Lln"/></g>
            <g><use xlink:href="#d2Z6oAVXt7"/></g>
            <g><use xlink:href="#e9ZSDwTeS"/></g>
            <g><use xlink:href="#f2rHcOazjP"/></g>
            <g><use xlink:href="#cFGMsbsLw"/></g>
            <g><use xlink:href="#abkIjcq83"/></g>
            <g><use xlink:href="#dvLYwBfMy"/></g>
            <g><use xlink:href="#n1PXJ8Cwoc"/></g>
            <g><use xlink:href="#b7MWFACYgo"/></g>
            <g><use xlink:href="#cxUUIbVvI"/></g>
            <g><use xlink:href="#m36ESUCAAz"/></g>
            <g><use xlink:href="#e1z4HVgrzb"/></g>
            <g><use xlink:href="#ccfnvCZEy"/></g>
            <g><use xlink:href="#aRFPnPWXz"/></g>
            <g><use xlink:href="#f1pRv3AdB"/></g>
            <g><use xlink:href="#aeEmpcXwi"/></g>
            <g><use xlink:href="#b5sKleqUCn"/></g>
            <g><use xlink:href="#acV3GT0fE"/></g>
            <g><use xlink:href="#a17TSBiC7Q"/></g>
            <g><use xlink:href="#aqi1EMpsH"/></g>
            <g><use xlink:href="#b4eq67TRa2"/></g>
            <g><use xlink:href="#aK4jM67XM"/></g>
            <g><use xlink:href="#b314TTetr8"/></g>
            <g><use xlink:href="#a3U9Y290FT"/></g>
            <g><use xlink:href="#hmKfsQ24D"/></g>
            <g><use xlink:href="#bpOWjySh"/></g>
            <g><use xlink:href="#c7f9Nc5oMN"/></g>
            <g><use xlink:href="#f4AZD6a0TC"/></g>
        </g>
    </g>
</svg>